<?xml version="1.0" encoding="utf-8"?>
<!-- Generator: Adobe Illustrator 27.5.0, SVG Export Plug-In . SVG Version: 6.00 Build 0)  -->
<svg version="1.1" xmlns="http://www.w3.org/2000/svg" xmlns:xlink="http://www.w3.org/1999/xlink" x="0px" y="0px"
	 viewBox="0 0 500 500" style="enable-background:new 0 0 500 500;" xml:space="preserve">
<g id="BACKGROUND">
	<rect style="fill:#FFFFFF;" width="500" height="500"/>
</g>
<g id="OBJECTS">
	<path style="fill:#FFECCC;" d="M240.137,385.231c28.238-3.849,57.437-12.471,85.943-26.16
		c108.548-52.122,166.004-157.988,128.33-236.452c-2.687-5.597-5.785-10.905-9.268-15.912
		c-29.428-42.403-85.969-63.561-149.624-59.882c-34.27,1.981-70.603,11.164-105.882,28.099
		C85.577,124.894,28.472,224.255,57.122,301.512c1.235,3.335,2.63,6.624,4.188,9.87C89.09,369.24,160.843,396.044,240.137,385.231z"
		/>
	<path style="fill:#F7DFBB;" d="M240.137,385.231c5.725-44.093-17.103-88.725-59.464-108.745
		c-43.197-20.415-93.272-8.89-123.551,25.026c1.235,3.335,2.63,6.624,4.188,9.87C89.09,369.24,160.843,396.044,240.137,385.231z"/>
	<path style="fill:#F7DFBB;" d="M337.466,145.704c40.292,19.042,88.396,1.814,107.44-38.483c0.081-0.171,0.161-0.341,0.237-0.514
		c-29.428-42.403-85.969-63.561-149.624-59.882C282.47,85.15,299.993,127.994,337.466,145.704z"/>
	
		<ellipse transform="matrix(0.9995 -0.0328 0.0328 0.9995 -3.9294 9.207)" style="fill:#F7DFBB;" cx="278.921" cy="124.481" rx="14.41" ry="14.41"/>
	<path style="fill:#F7DFBB;" d="M298.758,145.473c3.161,1.494,6.935,0.142,8.429-3.019c1.494-3.161,0.142-6.935-3.019-8.429
		c-3.161-1.494-6.935-0.142-8.429,3.019C294.245,140.205,295.596,143.979,298.758,145.473z"/>
	<path style="fill:#F7DFBB;" d="M102.07,228.028c3.161,1.494,6.935,0.142,8.429-3.019c1.494-3.161,0.142-6.935-3.019-8.429
		c-3.161-1.494-6.935-0.142-8.429,3.019C97.557,222.76,98.909,226.534,102.07,228.028z"/>
	<path style="fill:#F7DFBB;" d="M83.161,213.141c6.338,2.995,13.905,0.285,16.9-6.053c2.995-6.338,0.286-13.905-6.053-16.9
		c-6.338-2.995-13.905-0.285-16.9,6.053C74.113,202.579,76.823,210.146,83.161,213.141z"/>
	<ellipse style="fill:#EAC299;" cx="254.845" cy="428.099" rx="208.268" ry="15.578"/>
	<g>
		<path style="fill:#020B2A;" d="M410.975,161.817c0.554,0.512,1.09,1.055,1.607,1.616c0.095-0.842,0.215-1.682,0.267-2.53
			c0.067-1.092,0.081-2.186,0.042-3.279c-0.068-1.912-0.31-3.811-0.702-5.682c-1.149,1.154-2.327,2.258-3.624,3.258
			c-0.715,0.551-1.409,1.122-1.994,1.813c-0.465,0.55-0.855,1.151-1.26,1.743c0.332,0.07,0.662,0.147,0.988,0.244
			C408.085,159.532,409.618,160.561,410.975,161.817z"/>
		<path style="fill:#020B2A;" d="M266.298,232.715c-0.771,2.723-1.658,5.411-2.466,8.122c-0.052,0.523-0.082,1.049-0.079,1.562
			c0.001,0.107-0.049,0.172-0.114,0.207c-0.221,2.1-0.532,4.193-0.84,6.281c-0.657,4.452-1.313,8.904-1.969,13.357
			c0.019-0.003,0.033-0.012,0.053-0.013c0.777-0.026,1.553-0.053,2.329-0.087c3.056-0.133,6.129-0.368,9.105-1.116
			c1.484-0.373,2.939-0.872,4.314-1.546c1.424-0.699,2.755-1.573,4.015-2.533c2.515-1.916,4.801-4.157,6.808-6.598
			c0.952-1.158,1.835-2.382,2.532-3.712c0.733-1.397,1.184-2.896,1.395-4.458c0.218-1.609,0.254-3.251,0.262-4.873
			c0.007-1.605-0.051-3.21-0.172-4.811c-0.243-3.196-0.748-6.37-1.502-9.485c-0.755-3.119-1.756-6.182-3.003-9.14
			c-0.601-1.424-1.21-2.937-2.19-4.149c-0.212-0.262-0.448-0.537-0.785-0.629c-0.329-0.09-0.693-0.025-1.024,0.025
			c-0.818,0.123-1.632,0.267-2.444,0.424c-3.259,0.628-6.477,1.46-9.747,2.032c-2.711,0.475-5.509,0.802-8.264,0.567
			c0.357,0.251,0.719,0.496,1.073,0.751c0.744,0.536,1.492,1.073,2.206,1.649c0.649,0.523,1.262,1.116,1.685,1.841
			c0.461,0.79,0.644,1.691,0.724,2.592c0.081,0.908,0.08,1.827,0.051,2.738C268.133,225.451,267.314,229.128,266.298,232.715z"/>
		<path style="fill:#020B2A;" d="M256.298,138.461c-0.049-0.061-0.101-0.121-0.152-0.181c-0.085,0.201-0.17,0.401-0.26,0.599
			c-0.22,0.486-0.449,1.266-1.041,1.395c0.022,0.08,0.043,0.16,0.064,0.236c0.111,0.4,0.224,0.797,0.356,1.191
			c0.202,0.606,0.446,1.192,0.715,1.769c0.382-0.393,0.764-0.786,1.146-1.179c0.247-0.254,0.494-0.508,0.74-0.762
			c0.095-0.098,0.291-0.23,0.342-0.359c0.025-0.062-0.011-0.083-0.064-0.167c-0.374-0.592-0.786-1.162-1.206-1.721
			C256.73,139.004,256.517,138.73,256.298,138.461z"/>
		<path style="fill:#020B2A;" d="M277.154,115.327c1.231,0.809,2.578,1.207,4.051,1.237c0.463,0.009,0.926-0.007,1.388-0.034
			c0.193-0.011,0.385-0.024,0.578-0.038c0.143-0.01,0.352,0.015,0.487-0.044c0.074-0.032,0.055,0.008,0.062-0.129
			c0.002-0.042-0.002-0.095-0.007-0.139c-0.018-0.175-0.062-0.353-0.103-0.524c-0.068-0.285-0.156-0.566-0.261-0.84
			c-0.925-2.421-3.259-4.168-5.609-5.077c-2.604-1.008-5.397-1.28-8.15-1.65c0.587,0.473,1.156,0.971,1.705,1.493
			C273.265,111.458,274.857,113.818,277.154,115.327z"/>
		<path style="fill:#020B2A;" d="M255.279,102.097c4.583,0.552,8.972,2.212,12.742,4.827c0.194-1.616,0.263-3.246,0.188-4.872
			c-0.039-0.843-0.102-1.692-0.225-2.527c-0.102-0.697-0.275-1.421-0.861-1.873c-0.532-0.41-1.224-0.624-1.839-0.875
			c-0.706-0.289-1.413-0.576-2.122-0.857c-1.417-0.562-2.845-1.101-4.292-1.581c-1.445-0.478-2.912-0.9-4.4-1.224
			c-0.745-0.162-1.512-0.294-2.276-0.189c-0.72,0.099-1.411,0.367-2.091,0.609c-2.758,0.981-5.522,1.974-8.137,3.302
			c-0.652,0.331-1.296,0.678-1.926,1.051c-0.52,0.308-1.127,0.64-1.335,1.247c-0.109,0.319-0.117,0.662-0.127,0.995
			c-0.012,0.389-0.022,0.779-0.033,1.168c-0.019,0.675-0.04,1.351-0.083,2.025c2.108-0.639,4.276-1.06,6.476-1.28
			C248.352,101.701,251.87,101.686,255.279,102.097z"/>
		<path style="fill:#020B2A;" d="M228.547,118.659c1.924-0.56,3.828-1.201,5.738-1.806c3.803-1.204,7.616-2.388,11.496-3.323
			c3.758-0.906,7.582-1.577,11.445-1.802c3.752-0.219,7.546-0.017,11.225,0.782c1.81,0.393,3.588,0.935,5.301,1.64
			c0.369,0.152,0.735,0.313,1.099,0.476c-1.411-1.33-2.629-2.882-4.016-4.229c-4.365-4.237-10.106-6.842-16.146-7.464
			c-3.493-0.359-7.095-0.325-10.581,0.097c-3.163,0.383-6.271,1.236-9.172,2.558c-2.759,1.257-5.445,2.899-7.657,4.986
			c-1.023,0.965-1.955,2.028-2.662,3.249c-0.571,0.986-1.031,2.077-1.222,3.209c0.048,0.325,0.19,0.639,0.391,0.897
			C224.938,119.407,226.972,119.117,228.547,118.659z"/>
		<path style="fill:#020B2A;" d="M261.874,137.995c0.505,0.128,1.059,0.233,1.554,0.009c0.758-0.344,1.119-1.237,1.353-1.98
			c0.361-1.151,0.599-2.348,0.886-3.519c0.317-1.292,0.616-2.59,0.958-3.876c0.081-0.305,0.364-0.367,0.588-0.276
			c0.571-0.03,1.186,0.095,1.677-0.265c0.388-0.285,0.435-0.69,0.173-1.073c-0.226-0.33-0.551-0.587-0.804-0.896
			c-0.321-0.392-0.522-0.817-0.535-1.332c-0.017-0.652,0.168-1.331,0.26-1.975c0.09-0.629,0.171-1.259,0.243-1.891
			c0.15-1.306,0.262-2.616,0.335-3.929c0.036-0.656,0.063-1.313,0.08-1.97c0.012-0.487-0.007-1.021,0.109-1.508
			c-0.71-0.166-1.423-0.317-2.142-0.438c-3.754-0.633-7.601-0.651-11.384-0.284c-3.973,0.385-7.889,1.231-11.74,2.262
			c-2.387,0.64-4.753,1.354-7.113,2.088c0.054,0.035,0.096,0.09,0.112,0.173c0.183,0.933,0.293,1.878,0.46,2.813
			c0.168,0.94,0.379,1.872,0.627,2.794c0.065,0.243,0.136,0.484,0.212,0.725c0.068,0.074,0.102,0.176,0.091,0.283
			c0.127,0.369,0.275,0.73,0.463,1.073c0.167,0.304,0.359,0.593,0.6,0.844c0.247,0.257,0.571,0.407,0.819,0.654
			c0.176,0.175,0.138,0.397,0.003,0.537c0.059,0.727,0.044,1.46,0.043,2.188c0,0.352-0.018,0.708,0.002,1.059
			c0.019,0.337,0.141,0.599,0.348,0.862c1.389,1.771,3.126,3.328,4.965,4.617c0.933,0.654,1.909,1.245,2.921,1.768
			c0.513,0.265,1.035,0.512,1.564,0.742c0.466,0.202,0.966,0.353,1.424,0.574c0.505,0.018,1.019,0.126,1.51,0.197
			c0.617,0.09,1.234,0.192,1.847,0.305c0.074,0.014,0.166,0.042,0.243,0.044c0.007,0,0.005,0.003,0.008,0.004
			c0.065-0.068,0.107-0.207,0.145-0.283c0.135-0.279,0.266-0.56,0.391-0.843c0.17-0.382,0.326-0.769,0.476-1.158
			c-1.239-0.423-2.46-0.896-3.647-1.45c-2.284-1.065-4.525-2.465-6.347-4.219c-0.423-0.407-0.764-0.89-0.868-1.478
			c-0.119-0.671-0.017-1.373,0.025-2.048c0.083-1.326,0.151-2.654,0.317-3.972c-0.175-0.088-0.347-0.183-0.512-0.281
			c-0.356-0.21-0.731-0.449-1.014-0.753c-0.533-0.571-0.554-1.333-0.555-2.073c-0.001-0.648,0.064-1.339,0.4-1.909
			c0.691-1.171,2.447-1.307,3.352-0.308c0.202,0.223-0.051,0.521-0.309,0.401c-0.537-0.251-1.231-0.47-1.805-0.211
			c-0.577,0.261-0.748,0.91-0.784,1.49c-0.021,0.334-0.011,0.669,0.007,1.003c0.018,0.342,0.047,0.694,0.284,0.962
			c0.52,0.587,1.352,0.851,2.021,1.216c0.426,0.232,0.127,0.877-0.322,0.763c-0.025-0.006-0.049-0.016-0.074-0.023
			c0.005,1.326-0.077,2.651-0.143,3.975c-0.031,0.626-0.179,1.401,0.117,1.985c0.272,0.537,0.836,0.935,1.288,1.311
			c1.853,1.537,3.936,2.772,6.143,3.727c0.938,0.406,1.898,0.755,2.866,1.08c0.242-0.121,0.563-0.017,0.65,0.22
			c1.116,0.358,2.243,0.682,3.37,0.993C260.696,137.676,261.283,137.845,261.874,137.995z"/>
		<path style="fill:#020B2A;" d="M238.993,127.011c-0.229-0.137-0.441-0.329-0.609-0.497c-0.275-0.275-0.51-0.597-0.706-0.933
			c-0.153-0.262-0.28-0.537-0.397-0.818c-0.605,0.759-1.181,1.539-1.685,2.372c-0.311,0.514-0.607,1.044-0.863,1.589
			c-0.256,0.545-0.299,1.055-0.045,1.61c0.234,0.512,0.585,0.975,0.916,1.427c0.337,0.46,0.689,0.908,1.049,1.35
			c0.719,0.884,1.447,1.762,2.185,2.631c1.452,1.711,2.973,3.38,4.704,4.815c1.588,1.317,3.383,2.44,5.337,3.124
			c0.482,0.169,0.974,0.312,1.473,0.424c0.125,0.028,0.303,0.102,0.43,0.089c0.005-0.001,0.018-0.002,0.029-0.003
			c0.005-0.021,0.03-0.064,0.032-0.071c0.063-0.28,0.184-0.558,0.272-0.831c0.364-1.137,0.7-2.282,1.01-3.434
			c-0.322-0.055-0.647-0.112-0.965-0.19c-0.084,0.045-0.183,0.066-0.29,0.046c-0.661-0.125-1.329-0.472-1.942-0.744
			c-0.613-0.272-1.215-0.569-1.804-0.889c-2.102-1.142-4.049-2.582-5.758-4.256c-0.423-0.415-0.832-0.844-1.225-1.288
			c-0.404-0.456-0.883-0.931-1.106-1.508c-0.234-0.608-0.141-1.327-0.129-1.964C238.921,128.377,238.923,127.691,238.993,127.011z"
			/>
		<path style="fill:#020B2A;" d="M147.487,192.774c0.193,0.458,0.396,0.912,0.592,1.368c0.696,2.003,1.538,3.953,2.649,5.765
			c0.569,0.928,1.952,0.111,1.454-0.85c-0.789-1.526-1.376-3.133-1.726-4.811c0.039,0.132,0.073,0.266,0.114,0.398
			c0.293,0.95,0.637,1.89,1.1,2.772c0.071,0.136,0.152,0.29,0.248,0.432c0.137,0.027,0.254,0.108,0.317,0.251
			c0.014,0.031,0.017,0.067,0.023,0.101c0.078,0.051,0.163,0.09,0.258,0.109c0.377,0.072,0.573-0.305,0.595-0.629
			c0.036-0.517-0.189-1.064-0.323-1.556c-0.143-0.524-0.286-1.048-0.429-1.573c-0.286-1.048-0.572-2.097-0.852-3.147
			c-0.046-0.174,0.008-0.314,0.105-0.411c0.022,0.011,0.043,0.024,0.065,0.032c0.41,0.15,0.839,0.065,1.263,0.087
			c0.091,0.005,0.181,0.013,0.271,0.023c0.01,0.001,0.02,0.003,0.03,0.005c-0.007-0.002-0.011-0.004-0.019-0.006
			c0.036,0.013,0.082,0.013,0.119,0.02c0.198,0.036,0.394,0.087,0.585,0.152c0.038,0.013,0.076,0.027,0.114,0.041
			c0.014,0.005,0.175,0.081,0.072,0.028c0.022,0.011,0.046,0.023,0.054,0.027c0.045,0.022,0.09,0.045,0.135,0.068
			c0.167,0.089,0.325,0.19,0.479,0.3c0.036,0.032,0.074,0.061,0.11,0.094c0.075,0.067,0.147,0.137,0.216,0.209
			c0.063,0.065,0.124,0.132,0.182,0.201c0.022,0.026,0.035,0.039,0.043,0.046c0.021,0.034,0.04,0.072,0.052,0.089
			c0.137,0.204,0.333,0.337,0.544,0.395c-0.07,0.121-0.142,0.241-0.213,0.357c-0.219,0.36-0.459,0.708-0.715,1.042
			c-0.215,0.28-0.606,0.608-0.597,0.989c0.006,0.256,0.135,0.505,0.286,0.731c0.737-0.393,1.445-0.838,2.113-1.341
			c0.669-0.504,1.294-1.07,1.871-1.676c0.297-0.311,0.582-0.635,0.852-0.969c0.256-0.317,0.511-0.652,0.624-1.049
			c0.127-0.449,0.125-0.935,0.151-1.398c0.028-0.509,0.05-1.02,0.064-1.529c0.024-0.846,0.04-1.692,0.054-2.539
			c-0.164-0.106-0.323-0.218-0.477-0.325c-0.544-0.374-1.071-0.774-1.58-1.194c-0.985-0.812-1.898-1.71-2.725-2.682
			c-0.173-0.203-0.354-0.411-0.529-0.625c-0.57,0.373-1.187,0.688-1.775,1.023c-0.694,0.395-1.392,0.781-2.085,1.177
			c-0.523,0.299-1.05,0.611-1.504,1.01c-0.465,0.408-0.817,0.892-1.109,1.435c-0.658,1.223-1.168,2.538-1.739,3.804
			c-0.138,0.307-0.332,0.627-0.404,0.957c-0.063,0.284,0.073,0.546,0.179,0.805C146.939,191.465,147.211,192.12,147.487,192.774z"/>
		<path style="fill:#020B2A;" d="M156.536,180.877c0.812,0.92,1.702,1.771,2.657,2.541c0.467,0.376,0.952,0.73,1.45,1.063
			c0.26,0.174,0.538,0.395,0.846,0.472c0.267,0.067,0.503-0.032,0.736-0.158c1.088-0.589,2.097-1.363,3.001-2.204
			c0.451-0.419,0.902-0.86,1.288-1.341c0.278-0.347,0.663-0.907,0.43-1.365c-0.264-0.517,0.516-0.974,0.78-0.456
			c0.063,0.124,0.106,0.25,0.136,0.376c0.225-0.147,0.452-0.291,0.684-0.429c3.503-2.096,7.068-4.092,10.605-6.129
			c3.545-2.041,7.091-4.079,10.641-6.113c3.472-1.99,6.958-3.96,10.529-5.768c3.394-1.719,6.871-3.314,10.034-5.445
			c2.797-1.884,5.349-4.223,7.049-7.164c0.292-0.505,1.075-0.049,0.783,0.458c-0.212,0.367-0.436,0.726-0.673,1.077
			c-1.935,2.858-4.628,5.112-7.522,6.951c-1.672,1.062-3.417,1.996-5.182,2.893c0.025,0.065,0.037,0.136,0.014,0.216
			c-0.277,0.958-0.545,1.912-0.721,2.895c-0.173,0.967-0.293,1.943-0.429,2.915c-0.289,2.068-0.58,4.137-0.863,6.206
			c-0.499,3.647-0.983,7.297-1.452,10.948c-0.237,1.846-0.471,3.692-0.701,5.538c-0.105,0.842-0.234,1.687-0.278,2.535
			c-0.041,0.792-0.004,1.624,0.337,2.355c0.522,1.118,1.608,1.821,2.759,2.169c1.445,0.437,2.942,0.312,4.404,0.031
			c1.736-0.333,3.437-0.823,5.208-0.947c1.75-0.124,3.53,0.041,5.217,0.527c0.531,0.153,0.308,0.955-0.228,0.826
			c-0.435-0.105-0.874-0.19-1.315-0.268c-1.753-0.309-3.563-0.29-5.313,0.027c-1.772,0.321-3.507,0.856-5.312,0.978
			c-0.65,0.044-1.331,0.008-2-0.109c-0.022,0.125-0.102,0.234-0.249,0.26c-0.432,0.077-0.818,0.243-1.178,0.491
			c-0.689,0.474-1.218,1.259-1.276,2.109c-0.071,1.037,0.469,1.981,0.875,2.898c0.468,1.058,0.707,2.121,0.615,3.283
			c-0.094,1.195-0.424,2.35-0.689,3.515c-0.537,2.362-0.686,4.805-0.453,7.216c0.033,0.337,0.075,0.677,0.121,1.018
			c0.014,0.058,0.02,0.12,0.026,0.181c0.25,1.714,0.698,3.435,1.519,4.949c0.454,0.838,1.029,1.605,1.76,2.222
			c0.799,0.674,1.772,1.085,2.778,1.341c1.044,0.265,2.117,0.37,3.186,0.47c1.208,0.112,2.414,0.236,3.619,0.379
			c4.902,0.583,9.771,1.445,14.574,2.587c2.39,0.569,4.763,1.207,7.117,1.912c1.105,0.331,2.244,0.691,3.412,0.591
			c0.881-0.075,1.785-0.49,2.274-1.25c0.303-0.47,1.03-0.051,0.752,0.44c-0.251,0.443-0.598,0.799-1.025,1.076
			c-0.646,0.419-1.337,0.607-2.047,0.65c-0.346,0.1-0.681,0.235-0.955,0.454c-0.662,0.529-0.416,1.348-0.231,2.052
			c0.49,1.865,0.901,3.75,1.259,5.645c0.635,3.358,1.087,6.75,1.553,10.134c0.238,1.724,0.471,3.449,0.629,5.182
			c0.158,1.731,0.225,3.467,0.239,5.205c0.001,0.11-0.002,0.22-0.001,0.33c0.045,0.104,0.045,0.229-0.001,0.342
			c0.015,6.664-0.532,13.331-1.59,19.909c-0.017,0.102-0.085,0.18-0.169,0.237c-0.11,0.386-0.206,0.776-0.269,1.172
			c-0.092,0.585-0.113,1.185-0.078,1.776c0.027,0.459,0.086,0.961,0.413,1.311c0.35,0.374,0.858,0.618,1.303,0.857
			c0.448,0.24,0.91,0.459,1.381,0.65c1.984,0.803,4.105,1.22,6.223,1.471c2.265,0.268,4.547,0.385,6.822,0.542
			c2.39,0.165,4.779,0.354,7.172,0.471c2.29,0.112,4.592,0.139,6.874-0.108c1.121-0.121,2.234-0.317,3.326-0.6
			c0.55-0.143,1.094-0.308,1.63-0.498c0.437-0.154,0.868-0.335,1.207-0.662c0.248-0.239,0.445-0.552,0.178-0.853
			c-0.327-0.369-0.859-0.63-1.276-0.881c-0.932-0.562-1.911-1.039-2.909-1.47c-2.007-0.867-4.09-1.54-6.109-2.377
			c-1.078-0.447-2.138-0.936-3.174-1.473c-1.003-0.521-2.016-1.066-2.949-1.707c-0.866-0.595-1.509-1.365-1.727-2.413
			c-0.096-0.463-0.118-0.93-0.097-1.396c-0.131-0.067-0.233-0.189-0.235-0.38c-0.027-2.589,0.329-5.158,0.704-7.714
			c0.673-4.578,1.351-9.156,2.027-13.734c0.338-2.29,0.665-4.582,1.017-6.869c0.207-1.348,0.411-2.697,0.639-4.041
			c-0.281,0.019-0.59-0.208-0.495-0.563c0.119-0.441,0.241-0.88,0.366-1.319c0.221-0.775,0.454-1.547,0.688-2.318
			c0.008-0.059,0.014-0.118,0.022-0.177c0.117-0.815,0.316-1.615,0.581-2.393c-0.97-0.223-1.938-0.45-2.912-0.658
			c-1.989-0.424-3.991-0.792-6.002-1.094c-1.002-0.15-2.007-0.284-3.013-0.402c-0.496-0.058-0.992-0.112-1.489-0.162
			c-0.513-0.052-1.032-0.053-1.508-0.265c-0.292-0.13-0.194-0.591,0.087-0.662c0.564-0.142,1.183-0.005,1.753,0.054
			c0.57,0.059,1.14,0.124,1.709,0.193c3.965,0.485,7.949,1.158,11.806,2.212c0.5-1.615,0.994-3.232,1.436-4.865
			c0.943-3.487,1.656-7.06,1.654-10.685c-0.001-0.869-0.005-1.763-0.184-2.617c-0.172-0.825-0.537-1.535-1.116-2.147
			c-0.571-0.603-1.247-1.094-1.912-1.586c-0.732-0.542-1.471-1.074-2.218-1.596c-2.986-2.087-6.087-4.011-9.284-5.76
			c-1.598-0.874-3.218-1.707-4.859-2.5c-0.119-0.058-0.239-0.113-0.359-0.169c-0.234-0.058-0.463-0.155-0.678-0.296
			c-0.008-0.005-0.011-0.012-0.018-0.017c-1.304-0.563-2.653-0.991-4.095-1.057c-0.31-0.014-0.408-0.503-0.076-0.564
			c0.454-0.084,0.903-0.122,1.365-0.085c1.398,0.111,2.74,0.666,4.021,1.275c0.37-0.029,0.729-0.179,0.98-0.458
			c0.41-0.456,0.478-1.12,0.196-1.656c-0.32-0.611-0.811-1.141-0.843-1.865c-0.017-0.405,0.135-0.78,0.278-1.151
			c0.152-0.393,0.294-0.79,0.427-1.19c0.959-2.873,1.477-5.864,2.197-8.8c0.686-2.798,1.671-5.46,2.904-8.061
			c1.19-2.512,2.526-4.952,3.69-7.477c0.377-0.817,0.725-1.642,1.044-2.476c-0.079-0.19,0.02-0.362,0.166-0.436
			c0.581-1.58,1.044-3.197,1.344-4.87c0.043-0.239,0.334-0.372,0.551-0.313c0.254,0.07,0.348,0.312,0.313,0.551
			c-0.265,1.818-0.805,3.585-1.475,5.302c0.137,0.233,0.272,0.467,0.409,0.699c1.982,3.361,4.108,6.61,6.583,9.632
			c2.469,3.014,5.204,5.818,8.16,8.357c0.727,0.624,1.465,1.239,2.223,1.825c0.789,0.609,1.633,1.197,2.56,1.576
			c0.898,0.367,1.869,0.514,2.815,0.25c0.915-0.255,1.735-0.794,2.517-1.317c2.926-1.954,5.411-4.558,7.282-7.534
			c0.241-0.383,0.471-0.772,0.691-1.167c0.025-0.005,0.049-0.001,0.074-0.009c0.799-0.26,0.99-1.482,1.216-2.199
			c0.254-0.805,0.513-1.608,0.761-2.414c0.216-0.702,0.409-1.399,0.789-2.033c0.364-0.608,0.876-1.06,1.303-1.615
			c0.175-0.227,0.111-0.592-0.054-0.816c0.368-0.228,0.713-0.501,0.888-0.87c-1.502,0.061-2.886-0.826-3.892-1.921
			c-0.584-0.635-1.091-1.338-1.623-2.016c-0.262-0.333-0.531-0.661-0.824-0.966c-0.227-0.236-0.47-0.455-0.71-0.678
			c-0.43,0.832-1.002,1.565-1.686,2.219c-0.743,0.71-1.555,1.347-2.364,1.98c-0.906,0.709-1.821,1.407-2.746,2.09
			c-0.904,0.668-1.826,1.31-2.734,1.972c-0.417,0.305-0.828,0.618-1.22,0.955c-0.395,0.339-0.756,0.713-1.143,1.061
			c-0.333,0.299-0.935-0.102-0.65-0.502c0.378-0.532,0.863-0.989,1.38-1.409c-0.971-3.119-2.277-6.116-3.692-9.057
			c-1.276-2.65-2.619-5.268-3.94-7.896c-1.366-2.716-2.73-5.434-4.099-8.149c-1.19-2.36-2.433-4.759-4.325-6.644
			c-1.012-1.008-2.158-1.872-3.279-2.753c-0.64-0.503-1.274-1.011-1.905-1.523c0.021,0.031,0.044,0.061,0.066,0.092
			c0.195,0.285,0.458,0.588,0.553,0.926c0.105,0.373-0.06,0.694-0.305,0.967c-0.266,0.297-0.557,0.574-0.835,0.859l-1.793,1.844
			c-0.194,0.2-0.577,0.167-0.71-0.092c-0.349-0.679-0.655-1.381-0.912-2.101c-0.128-0.358-0.239-0.721-0.336-1.088
			c-0.049-0.183-0.096-0.368-0.135-0.553c-0.018-0.085-0.032-0.17-0.048-0.255c-0.008-0.049-0.017-0.098-0.027-0.146
			c-0.004-0.012-0.005-0.019-0.006-0.027c-0.067-0.038-0.121-0.085-0.151-0.143c-0.048-0.01-0.097-0.022-0.143-0.031
			c-0.228-0.043-0.455-0.084-0.683-0.125c-0.003,0.019,0.002,0.035-0.003,0.054c-0.384,1.427-0.786,2.86-1.277,4.255
			c-0.108,0.306-0.254,0.604-0.579,0.722c-0.297,0.108-0.605,0.033-0.904-0.031c-0.609-0.131-1.208-0.306-1.794-0.52
			c-4.513-1.645-7.862-5.227-10.867-8.827c-0.796-0.953-1.597-1.904-2.353-2.888c-0.694-0.903-1.627-1.996-1.622-3.2
			c0.003-0.596,0.271-1.136,0.541-1.652c0.084-0.161,0.176-0.319,0.265-0.477c-1.465,0.424-3.013,0.643-4.519,0.837
			c-1.609,0.207-3.229,0.316-4.852,0.336c-2.872,0.035-5.737-0.356-8.608-0.246c-1.337,0.051-2.662,0.234-3.942,0.63
			c-1.062,0.329-2.073,0.791-3.037,1.342c-1.975,1.129-3.725,2.598-5.422,4.101c-0.881,0.779-1.749,1.573-2.635,2.347
			c-0.86,0.753-1.73,1.59-2.724,2.163c-0.18,0.198-0.361,0.396-0.544,0.592c-3.747,4.016-7.76,7.733-12.042,11.172
			c-2.121,1.704-4.283,3.356-6.451,4.999c-2.17,1.644-4.317,3.352-6.676,4.723c-4.069,2.367-9.294,3.98-11.477,8.545
			c-0.227,0.475-0.4,0.975-0.52,1.488c-0.134,0.576-0.133,1.191-0.344,1.746c-0.217,0.569-0.635,0.98-1.085,1.373
			c-0.497,0.434-0.984,0.88-1.454,1.344c-0.924,0.912-1.868,1.88-2.616,2.945c-0.169,0.241-0.345,0.515-0.358,0.818
			c-0.012,0.272,0.129,0.518,0.273,0.738C155.722,179.952,156.134,180.421,156.536,180.877z"/>
		<path style="fill:#020B2A;" d="M247.099,290.583c-2.18-0.409-4.336-1.088-6.244-2.239c-0.227-0.137-0.454-0.285-0.656-0.458
			c0.024,0.328,0.043,0.655,0.06,0.983c0.035,0.653,0.061,1.306,0.09,1.959c0.01,0.237-0.04,0.453,0.174,0.591
			c0.177,0.114,0.371,0.21,0.567,0.287c0.461,0.18,0.954,0.281,1.445,0.331c1.063,0.108,2.143,0.065,3.21,0.068
			c1.197,0.004,2.394,0.008,3.591,0.012c0.316,0.001,0.633,0.007,0.949,0.003c0.154-0.002,0.377,0.014,0.506-0.089
			c0.216-0.173,0.093-0.474-0.063-0.632c-0.106-0.107-0.134-0.226-0.119-0.337C249.432,290.948,248.26,290.801,247.099,290.583z"/>
		<path style="fill:#020B2A;" d="M193.936,223.745c0.655,1.852,1.426,3.721,2.44,5.408c0.467,0.777,1.037,1.503,1.808,1.997
			c0.783,0.502,1.679,0.775,2.577,0.989c2.028,0.485,4.097,0.841,6.163,1.121c4.137,0.561,8.354,0.712,12.503,0.189
			c2.07-0.261,4.096-0.73,6.094-1.325c1.45-0.432,2.899-0.88,4.383-1.159c-0.742-0.182-1.485-0.359-2.23-0.527
			c-5.005-1.131-10.077-1.96-15.182-2.475c-2.277-0.23-4.71-0.28-6.768-1.403c-1.862-1.016-3.046-2.851-3.771-4.793
			c-0.48-1.284-0.789-2.645-0.971-4.02c-0.113-0.118-0.26-0.213-0.396-0.294c-0.384-0.23-0.809-0.396-1.217-0.576
			c-0.476-0.211-0.951-0.423-1.434-0.617c-0.931-0.374-1.888-0.694-2.876-0.881c-0.5-0.094-1.006-0.147-1.515-0.154
			c-0.37-0.005-0.825-0.029-1.158,0.165c-0.353,0.206-0.287,0.665-0.243,1.013c0.062,0.488,0.146,0.975,0.234,1.46
			C192.736,219.862,193.259,221.831,193.936,223.745z"/>
		<path style="fill:#020B2A;" d="M186.831,228.861c-2-0.272-3.999-0.553-6.01-0.732c-3.948-0.351-8.032-0.318-11.775,1.138
			c-0.461,0.18-0.965,0.364-1.378,0.642c-0.413,0.277-0.506,0.659-0.564,1.132c-0.123,1.006-0.194,2.021-0.243,3.033
			c-0.096,1.982-0.071,3.97,0.072,5.95c0.291,4.007,1.079,7.976,2.327,11.795c0.625,1.912,1.366,3.786,2.224,5.606
			c0.423,0.897,0.874,1.782,1.352,2.652c0.406,0.738,0.869,1.616,1.705,1.932c0.509,0.193,1.078,0.154,1.611,0.136
			c0.545-0.018,1.09-0.037,1.635-0.052c1.09-0.03,2.18-0.052,3.271-0.067c2.281-0.03,4.561-0.027,6.842-0.001
			c9.031,0.103,18.052,0.567,27.081,0.779c4.505,0.106,9.014,0.149,13.52,0.053c4.321-0.093,8.626-0.372,12.934-0.7
			c-0.007-0.699-0.015-1.399-0.038-2.098c-0.117-3.54-0.629-7.041-1.12-10.544c-0.484-3.455-1.003-6.908-1.719-10.323
			c-0.175-0.835-0.363-1.667-0.566-2.496c-0.192-0.783-0.516-1.635-0.328-2.449c0.103-0.447,0.343-0.781,0.659-1.035
			c-1.075-0.181-2.151-0.551-3.137-0.838c-1.078-0.313-2.162-0.61-3.248-0.895c-0.073,0.085-0.176,0.147-0.315,0.158
			c-0.545,0.043-1.085,0.12-1.621,0.223c-2.176,0.42-4.257,1.212-6.407,1.738c-2.15,0.526-4.351,0.842-6.559,0.986
			c-4.442,0.291-8.907-0.127-13.279-0.914c-1.066-0.192-2.134-0.397-3.188-0.646c-0.97-0.23-1.95-0.532-2.8-1.067
			c-1.29-0.811-2.118-2.112-2.793-3.465c-0.717,0.376-1.488,0.61-2.293,0.72C190.734,229.477,188.759,229.124,186.831,228.861z"/>
		<path style="fill:#020B2A;" d="M184.646,416.569c-0.409-1.178-0.968-2.3-1.652-3.343c-0.354-0.539-0.657-1.053-0.71-1.711
			c-0.051-0.638,0.051-1.287,0.035-1.928c-0.065-2.509-0.923-4.925-2.39-6.953c-0.767-1.06-1.669-2.015-2.559-2.971
			c-0.979-1.053-1.959-2.105-2.938-3.158c-0.966-1.039-1.933-2.078-2.899-3.116c-0.466-0.501-0.934-1.001-1.396-1.506
			c-0.855-1.753-1.672-3.523-2.478-5.299c-0.456-1.006-0.915-2.013-1.236-3.072c-0.32-1.054-0.482-2.14-0.587-3.233
			c-0.162-1.699-0.257-3.406-0.347-5.112c0.054-0.862,0.132-1.723,0.249-2.58c0.569-4.178,1.927-8.262,3.98-11.945
			c1.077-1.932,2.415-3.655,3.7-5.447c0.691-0.964,1.327-1.966,1.805-3.053c0.471-1.07,0.799-2.201,1.073-3.335
			c0.587-2.427,1.016-4.897,1.5-7.346c0.496-2.508,0.988-5.017,1.477-7.527c0.985-5.056,1.96-10.113,2.935-15.171
			c-8.032-2.55-15.947-5.746-23.263-9.92c-4.162,2.694-7.273,7.148-9.879,11.257c-1.91,3.01-3.822,6.009-5.91,8.902
			c-0.047,0.065-0.096,0.129-0.143,0.195c0.023,0.021,0.046,0.04,0.064,0.07c0.389,0.63,0.748,1.273,1.082,1.934
			c2.661,5.259,3.881,11.318,3.617,17.197c-0.136,3.021-0.697,5.982-1.525,8.886c-0.84,2.944-1.894,5.821-2.783,8.75
			c-0.884,2.913-1.614,5.9-1.727,8.954c-0.057,1.539-0.047,3.198,0.598,4.628c0.615,1.362,1.729,2.471,2.779,3.505
			c2.142,2.109,4.549,3.92,6.899,5.786c2.439,1.937,4.735,3.991,6.838,6.292c1.103,1.207,2.165,2.45,3.224,3.696
			c0.94,1.106,1.874,2.219,2.714,3.405c1.462,2.063,2.754,4.531,2.653,7.113c0.342,0.473,0.637,0.974,0.856,1.516
			c0.455,1.129,0.654,2.345,0.613,3.56c-0.039,1.132-0.236,2.25-0.35,3.375c-0.107,1.053-0.165,2.156,0.186,3.172
			c0.347,1.004,1.134,1.725,2.091,2.146c0.999,0.439,2.114,0.591,3.188,0.723c1.391,0.171,2.787,0.297,4.186,0.376
			c1.417,0.081,2.838,0.117,4.258,0.099c0.87-0.011,2.063-0.043,2.643-0.811c0.327-0.432,0.359-1.01,0.374-1.53
			c0.019-0.626-0.002-1.253-0.06-1.876C185.321,418.937,185.048,417.728,184.646,416.569z"/>
		<path style="fill:#020B2A;" d="M383.888,366.89c-0.103-1.174-0.265-2.342-0.372-3.516c-0.001-0.007,0.002-0.012,0.002-0.019
			c-0.305-0.251-0.608-0.504-0.913-0.754c-1.295-1.062-2.589-2.125-3.882-3.19c-0.66-0.544-1.321-1.088-1.982-1.632
			c-0.632-0.52-1.274-1.033-1.863-1.602c-0.224-0.031-0.447-0.069-0.669-0.114c-1.104-0.224-2.167-0.626-3.148-1.175
			c-0.042,1.336-0.093,2.668-0.182,4.003c-0.163,2.443-0.333,4.886-0.511,7.328c-0.09,1.231-0.179,2.462-0.269,3.693
			c-0.046,0.625-0.091,1.25-0.136,1.875c-0.043,0.586-0.006,1.251-0.182,1.814c-0.004,0.011-0.012,0.02-0.016,0.031
			c-0.023,0.416-0.068,0.83-0.148,1.239c-0.377,1.921-1.428,3.662-2.91,4.931c-1.14,0.976-3.068,2.133-2.697,3.907
			c0.113,0.54,0.369,1.029,0.64,1.504c0.273,0.479,0.559,0.952,0.85,1.421c0.584,0.941,1.2,1.862,1.846,2.761
			c0.643,0.896,1.317,1.77,2.021,2.62c0.692,0.835,1.395,1.686,2.176,2.439c0.703,0.678,1.52,1.14,2.513,0.845
			c0.956-0.284,1.807-0.971,2.625-1.521c1.598-1.075,3.175-2.23,4.427-3.708c0.624-0.737,1.154-1.565,1.53-2.455
			c0.42-0.995,0.664-2.06,0.826-3.124c0.168-1.105,0.241-2.224,0.32-3.337c0.084-1.184,0.159-2.369,0.218-3.554
			c0.118-2.369,0.18-4.743,0.105-7.115C384.071,369.285,383.992,368.087,383.888,366.89z"/>
		<path style="fill:#020B2A;" d="M448.308,229.578c-0.445-0.748-1.134-1.283-1.836-1.776c-0.756-0.532-1.503-1.07-2.199-1.68
			c-0.677-0.592-1.317-1.232-1.894-1.922c-0.287-0.344-0.611-0.713-0.887-1.108c-0.043-0.021-0.086-0.045-0.117-0.085
			c-0.306-0.386-0.609-0.775-0.91-1.165c-2.403-3.117-4.627-6.372-6.659-9.742c-2.032-3.37-3.873-6.856-5.51-10.435
			c-0.821-1.794-1.591-3.612-2.31-5.45c-0.362-0.924-0.71-1.853-1.044-2.787c-0.346-0.965-0.74-1.943-0.939-2.951
			c-0.205-1.042-0.042-2.086-0.132-3.134c-0.082-0.95-0.356-1.886-0.72-2.764c-0.749-1.807-1.875-3.449-2.991-5.045
			c-1.989-2.846-4.246-5.472-6.598-8.018c0.163,0.395,0.319,0.793,0.463,1.196c0.155,0.433-0.441,0.724-0.74,0.431
			c-0.567-0.554-1.132-1.109-1.693-1.668c-0.272-0.271-0.544-0.54-0.815-0.811c-0.145-0.145-0.287-0.292-0.421-0.447
			c-0.156-0.18-0.266-0.308-0.301-0.547c-0.034-0.229,0.121-0.38,0.349-0.349c0.24,0.033,0.369,0.144,0.551,0.298
			c0.156,0.132,0.304,0.273,0.451,0.416c0.274,0.268,0.547,0.538,0.82,0.806c0.069,0.068,0.137,0.136,0.205,0.204
			c-0.01-0.024-0.019-0.048-0.03-0.071c-0.145-0.33-0.3-0.656-0.445-0.986c-0.104-0.235-0.227-0.47-0.309-0.715
			c-1.439-0.794-2.8-1.729-4.008-2.817c-0.357-0.322,0.134-0.965,0.517-0.67c1.204,0.929,2.429,1.82,3.751,2.574
			c1.114,0.635,2.276,1.178,3.472,1.635c-0.263-1.604-1.111-3.064-2.101-4.34c-1.029-1.326-2.213-2.588-3.49-3.677
			c-1.348-1.149-2.874-1.949-4.609-2.324c-1.805-0.39-3.68-0.386-5.519-0.366c-0.999,0.011-1.997,0.044-2.995,0.1
			c-0.699,0.039-1.403,0.107-2.105,0.137c0.068,0.085,0.141,0.167,0.207,0.253c0.516,0.67,1.059,1.378,1.419,2.147
			c0.234,0.501-0.415,0.876-0.737,0.431c-0.548-0.761-1.019-1.567-1.609-2.3c-0.583-0.725-1.216-1.408-1.891-2.047
			c-1.204-1.139-2.547-2.124-3.995-2.929c-0.354-0.197-0.713-0.383-1.078-0.558c-0.203-0.097-0.407-0.191-0.613-0.281
			c-0.074-0.033-0.148-0.066-0.224-0.096c-0.029-0.012-0.147-0.04-0.177-0.065c-0.004-0.003-0.01-0.004-0.015-0.005
			c-0.009,0.022-0.024,0.052-0.026,0.069c-0.007,0.078-0.012,0.155-0.008,0.234c0.009,0.202,0.045,0.404,0.074,0.604
			c0.07,0.475,0.153,0.948,0.244,1.42c0.373,1.942,0.859,3.861,1.086,5.828c0.111,0.958,0.163,1.939,0.051,2.9
			c-0.065,0.555-0.431,1.51-1.162,1.143c-0.19-0.095-0.07-0.334,0.096-0.356c0.349-0.045,0.3-0.833,0.304-1.052
			c0.009-0.547-0.009-1.091-0.05-1.636c-0.005-0.063-0.013-0.124-0.018-0.187c-2.12-0.459-4.236-0.908-6.384-1.221
			c-1.947-0.283-3.94-0.529-5.911-0.509c-1.759,0.018-3.416,0.398-4.944,1.281c-1.356,0.784-2.543,1.815-3.737,2.82
			c-0.61,0.513-1.224,1.021-1.861,1.5c-0.613,0.46-1.283,0.945-2.029,1.155c-0.063,0.018-0.122,0.01-0.177-0.008
			c-0.79,0.409-1.666,0.678-2.522,0.87c-1.536,0.345-3.111,0.484-4.649,0.822c-1.577,0.347-3.105,0.901-4.538,1.645
			c-1.421,0.737-2.749,1.648-3.942,2.717c-0.604,0.541-1.174,1.122-1.709,1.732c-0.262,0.299-0.523,0.599-0.771,0.91
			c-0.136,0.17-0.264,0.347-0.402,0.516c-0.12,0.147-0.277,0.264-0.414,0.396c-0.188,0.18-0.573,0.002-0.468-0.273
			c0.083-0.217,0.148-0.443,0.272-0.641c0.125-0.199,0.263-0.391,0.401-0.582c0.06-0.083,0.123-0.163,0.185-0.245
			c-0.244,0.127-0.489,0.248-0.735,0.359c-1.303,0.591-2.673,1.007-4.068,1.314c-2.342,0.513-4.822,0.728-7.248,1.116
			c-0.405-0.243-0.812-0.482-1.221-0.717c-3.034-1.74-6.176-3.278-9.337-4.773c-3.837-1.814-7.683-3.611-11.524-5.415
			c-1.757-0.825-3.519-1.639-5.28-2.456c0.267-0.306,0.501-0.639,0.699-0.993c0.216-0.18,0.401-0.4,0.532-0.626
			c0.36-0.619,0.363-1.414,0.022-2.041c-0.312-0.573-0.88-0.91-1.473-0.986c-0.109-0.397-0.336-0.765-0.697-1.046
			c-0.305-0.238-0.644-0.37-0.989-0.411c0.014-0.061,0.029-0.122,0.037-0.186c0.106-0.817-0.43-1.541-1.239-1.705
			c-0.373-0.076-0.754-0.058-1.132-0.053c-0.307,0.004-0.628-0.01-0.931,0.049c-0.092-0.246-0.216-0.48-0.39-0.676
			c-0.796-0.898-2.062-0.559-2.663,0.375c-0.005,0.008-0.006,0.017-0.01,0.025c-0.181,0.122-0.353,0.259-0.505,0.422
			c-0.127,0.137-0.237,0.331-0.356,0.515c0.525,0.05,1.083,0.131,1.522,0.383c0.503,0.288,0.733,0.824,0.637,1.387
			c-0.086,0.507-0.436,0.971-0.889,1.211c-0.591,0.314-1.271,0.322-1.924,0.304c-0.585-0.016-0.586-0.927,0-0.91
			c0.512,0.015,1.178,0.07,1.611-0.265c0.224-0.174,0.461-0.59,0.237-0.849c-0.14-0.162-0.401-0.208-0.599-0.25
			c-0.237-0.05-0.477-0.089-0.717-0.121c-0.574-0.077-1.154-0.112-1.733-0.104c-0.421,0.005-0.903-0.02-1.197,0.336
			c-0.246,0.299-0.336,0.717-0.397,1.09c-0.175,1.069-0.169,2.188-0.092,3.266c0.039,0.55,0.108,1.097,0.208,1.64
			c0.102,0.554,0.264,1.098,0.324,1.658c0.005,0.05-0.005,0.092-0.022,0.132c0.591,0.346,1.082,0.857,1.527,1.371
			c0.534,0.615,1.005,1.28,1.535,1.898c0.804,0.938,1.897,1.908,3.158,2.019c0.053-0.156,0.187-0.279,0.405-0.274
			c1.065,0.023,1.877-0.792,2.263-1.723c0.194-0.469,0.305-0.977,0.378-1.479c0.031-0.211,0.056-0.422,0.097-0.627
			c1.461,1.073,2.921,2.146,4.385,3.214c3.479,2.538,7.023,5.041,10.045,8.129c1.6,1.635,3.036,3.403,4.339,5.266
			c-0.945,0.984-1.889,1.969-2.834,2.953c-1.103,1.149-2.205,2.299-3.308,3.448c-1.103,1.15-2.184,2.327-3.424,3.332
			c-0.232,0.188-0.661-0.066-0.451-0.348c1.07-1.438,2.352-2.7,3.591-3.992c0.292-0.304,0.584-0.608,0.875-0.913
			c-1.01,0.229-1.997,0.555-2.926,1.012c-1.15,0.568-2.231,1.282-3.234,2.081c-1.97,1.569-3.682,3.425-5.527,5.131
			c-1.777,1.643-3.713,3.096-5.828,4.274c-2.077,1.158-4.283,2.024-6.567,2.673c-1.082,0.308-2.2,0.62-3.117,1.301
			c-0.94,0.697-1.546,1.738-2.3,2.615c0.397,0.153,0.74,0.423,1.04,0.792c0.498,0.613,0.909,1.287,1.267,1.99
			c0.756,1.484,1.384,3.046,1.972,4.602c1.159,3.069,2.064,6.233,2.708,9.449c0.645,3.221,1.032,6.497,1.15,9.78
			c0.059,1.641,0.051,3.285-0.027,4.925c-0.08,1.685-0.243,3.392-0.758,5.006c-0.951,2.982-2.967,5.517-5.049,7.798
			c-2.178,2.385-4.636,4.598-7.35,6.359c-2.685,1.742-5.694,2.797-8.834,3.356c-3.172,0.565-6.4,0.688-9.614,0.796
			c-0.069,0.002-0.128-0.01-0.181-0.031c-0.311,2.105-0.627,4.21-0.93,6.317c-0.255,1.767-0.475,3.541-0.548,5.324
			c0.14,0.048,0.254,0.161,0.241,0.335c-0.038,0.515-0.083,1.034-0.083,1.551c-0.001,1.021,0.209,1.976,1.003,2.675
			c0.4,0.353,0.874,0.621,1.33,0.894c0.516,0.308,1.039,0.605,1.569,0.889c2.089,1.121,4.276,1.985,6.494,2.813
			c2.108,0.787,4.234,1.589,6.167,2.755c0.805,0.486,2.091,1.126,1.83,2.269c-0.233,1.021-1.37,1.518-2.254,1.826
			c-4.504,1.565-9.376,1.39-14.063,1.082c-2.539-0.167-5.077-0.348-7.616-0.523c-0.726-0.05-1.452-0.104-2.178-0.164
			c0.162,0.308,0.184,0.702,0.075,1.025c-0.218,0.646-0.829,0.84-1.456,0.849c-1.437,0.021-2.876-0.008-4.312-0.013
			c-1.277-0.004-2.575,0.054-3.843-0.124c-0.6-0.085-1.185-0.244-1.73-0.513c-0.255-0.126-0.527-0.275-0.705-0.501
			c-0.19-0.24-0.217-0.528-0.225-0.824c-0.019-0.69-0.037-1.38-0.048-2.071c-0.006-0.373-0.01-0.746-0.008-1.12
			c0.001-0.296-0.026-0.597,0.158-0.838c-0.17-0.418-0.227-0.876-0.25-1.325c-0.064-1.215,0.112-2.46,0.555-3.595
			c0.01-0.027,0.028-0.043,0.042-0.066c0.602-3.798,1.028-7.623,1.271-11.461c0.16-2.521,0.254-5.052,0.252-7.581
			c-0.952,0.11-1.904,0.205-2.859,0.284c-9.177,0.762-18.422,0.603-27.617,0.325c-9.174-0.278-18.347-0.722-27.527-0.688
			c-2.33,0.008-4.659,0.048-6.988,0.129c-0.993,0.034-2.02,0.082-2.865-0.531c-0.725-0.525-1.175-1.322-1.596-2.093
			c-1.962-3.595-3.472-7.441-4.494-11.406c-1.023-3.967-1.564-8.065-1.598-12.161c-0.014-1.658,0.044-3.331,0.211-4.985
			c-0.096,0.078-0.222,0.122-0.372,0.099c-1.109-0.173-2.223-0.318-3.34-0.43c-8.887-0.896-17.964,0.098-26.399,3.063
			c-7.5,2.637-14.424,6.88-20.166,12.379c-4.343,0.79-8.711,1.433-13.072,2.116c-8.805,1.38-17.639,3.009-25.884,6.512
			c-3.787,1.609-7.424,3.6-10.707,6.089c-3.491,2.648-6.38,5.845-9.027,9.321c-5.839,7.668-11.414,15.537-17.191,23.252
			c-4.857,6.486-10.15,13.011-17.217,17.194c-0.857,0.507-1.736,0.974-2.634,1.404c-0.51,0.244-0.111,0.894,0.351,0.832
			c5.061-0.684,10.168-1.379,15.183-2.442c-2.384,3.096-4.033,6.82-3.654,10.797c0.04,0.421,0.605,0.648,0.843,0.228
			c1.991-3.515,5.694-5.561,9.428-6.761c4.171-1.341,8.537-1.938,12.715-3.269c7.324-2.333,14.411-6.162,19.469-12.062
			c5.551-6.474,7.648-14.833,10.675-22.609c2.762-7.096,6.782-13.776,12.448-18.935c0.127-0.115,0.258-0.225,0.386-0.338
			c1.551-0.555,3.119-1.067,4.689-1.559c2.172-0.681,4.381-1.35,6.578-2.071c-2.851,4.037-5.144,8.457-6.841,13.141
			c-3.032,8.371-4.281,17.277-4.506,26.147c-0.125,4.94,0.04,9.882,0.362,14.812c0.24,3.68,0.611,7.351,0.902,11.027
			c0.004,0.066,0.007,0.133,0.011,0.199c0.128,2.2,0.269,4.439,0.188,6.656c-0.486,1.229-1.034,2.434-1.639,3.608
			c-2.808,5.445-6.782,10.212-11.218,14.405c-2.379,2.248-4.895,4.346-7.476,6.358c-1.295,1.01-2.605,2.001-3.923,2.98
			c-0.643,0.478-1.29,0.953-1.944,1.415c-0.681,0.481-1.398,0.904-2.093,1.364c-0.029,0.019-0.058,0.029-0.087,0.034
			c-0.385,0.318-0.718,0.697-0.976,1.132c-1.028,1.731-0.886,3.804-0.514,5.705c0.424,2.168,0.934,4.318,1.351,6.488
			c0.836,4.347,1.505,8.726,2.022,13.122c1.042,8.861,1.439,17.797,1.185,26.715c-0.062,2.192-0.165,4.383-0.305,6.571
			c-0.06,0.939-0.175,1.975,0.214,2.862c0.328,0.746,1.01,1.206,1.687,1.608c0.671,0.399,1.37,0.766,1.95,1.298
			c0.566,0.52,0.949,1.194,1.177,1.923c0.482,1.539,0.292,3.184,0.604,4.752c0.146,0.735,0.409,1.454,0.936,2.003
			c0.587,0.611,1.384,0.926,2.197,1.109c0.872,0.197,1.766,0.239,2.656,0.285c1.106,0.057,2.211,0.113,3.317,0.17
			c1.096,0.056,2.192,0.117,3.288,0.169c0.906,0.043,1.928,0.093,2.742-0.378c1.424-0.824,1.29-2.759,0.912-4.125
			c-0.456-1.648-1.308-3.197-2.21-4.639c-0.911-1.455-1.936-2.834-2.95-4.218c-0.244-0.333-0.488-0.668-0.73-1.005
			c-0.552-1.386-1.089-2.779-1.603-4.179c-0.645-1.757-1.265-3.526-1.853-5.303c-0.294-0.889-0.587-1.779-0.87-2.671
			c-0.045-0.142-0.095-0.281-0.144-0.42c-0.129-1.146-0.241-2.293-0.337-3.439c-0.461-5.473-0.504-10.979-0.131-16.459
			c0.188-2.76,0.481-5.513,0.877-8.252c0.103-0.714,0.23-1.432,0.426-2.129c0.381-0.353,0.771-0.683,1.125-1.081
			c0.409-0.458,0.812-0.922,1.221-1.38c0.555-0.621,1.118-1.233,1.689-1.839c6.099-2.744,11.993-5.948,17.603-9.59
			c5.805-3.768,11.317-7.99,16.46-12.619c5.124-4.612,9.887-9.626,14.221-14.988c2.176-2.692,4.241-5.474,6.189-8.336
			c2.076-3.049,3.932-6.242,6.029-9.275c2.098-3.035,4.499-5.901,7.574-7.989c0.128-0.086,0.257-0.17,0.387-0.254
			c0.052-0.095,0.149-0.164,0.265-0.169c2.738-1.709,5.94-2.78,9.189-2.467c0.515,0.05,0.531,0.846,0,0.817
			c-0.865-0.046-1.729-0.002-2.587,0.112c-2.068,0.275-3.93,0.978-5.625,1.971c0.793,0.391,1.587,0.782,2.38,1.172
			c8.52,4.189,17.41,7.581,26.568,10.087c9.173,2.511,18.572,4.171,28.039,5.056c9.721,0.909,19.509,0.999,29.252,0.403
			c10.118-0.619,20.183-1.976,30.131-3.913c9.491-1.847,18.871-4.225,28.134-6.991c0.019-0.112,0.097-0.209,0.212-0.242
			c0.396-0.113,0.797-0.199,1.199-0.281c0.722,1.064,1.576,2.039,2.529,2.905c3.675,3.338,8.487,5.004,13.211,6.227
			c1.915,0.496,3.951,0.938,5.726,1.864c0.145,0.182,0.273,0.377,0.353,0.577c2.607,1.725,5.245,3.4,7.918,5.022
			c3.503,2.127,7.051,4.181,10.598,6.233c3.564,2.062,7.133,4.117,10.664,6.236c1.757,1.054,3.504,2.125,5.237,3.219
			c1.692,1.069,3.503,2.092,4.958,3.481c0.719,0.686,1.3,1.493,1.943,2.247c0.587,0.689,1.244,1.313,1.99,1.827
			c1.453,1.003,3.156,1.633,4.918,1.78c0.404,0.034,0.521,0.482,0.36,0.735c0.537,0.403,1.056,0.833,1.579,1.253
			c0.726,0.583,1.452,1.167,2.178,1.75c1.48,1.19,2.954,2.388,4.426,3.589c5.191,4.237,10.344,8.522,15.417,12.901
			c1.268,1.094,2.531,2.195,3.788,3.302c1.204,1.061,2.385,2.153,3.621,3.179c1.201,0.996,2.483,1.88,3.902,2.539
			c1.471,0.683,3.04,1.094,4.639,1.339c0.497,0.076,0.376,0.934-0.119,0.876c-0.044-0.005-0.087-0.013-0.131-0.018
			c0.963,1.726,1.745,3.552,2.571,5.348c0.695,1.511,1.327,3.353,2.89,4.177c0.657,0.347,1.408,0.504,2.139,0.604
			c0.825,0.113,1.66,0.169,2.491,0.212c1.788,0.093,3.582,0.069,5.368-0.054c1.787-0.122,3.565-0.342,5.33-0.642
			c0.867-0.148,1.731-0.314,2.592-0.496c0.824-0.175,1.661-0.34,2.47-0.581c0.541-0.162,1.153-0.392,1.48-0.883
			c0.413-0.618,0.145-1.379-0.171-1.975c-0.383-0.722-0.871-1.395-1.321-2.076c-0.436-0.66-0.877-1.318-1.328-1.968
			c-1.826-2.633-3.848-5.159-6.364-7.168c-0.084-0.067-0.119-0.17-0.125-0.276c-0.223-0.307-0.465-0.598-0.732-0.869
			c-1.303-1.322-2.988-2.184-4.634-2.998c-1.8-0.89-3.594-1.792-5.364-2.741c-3.598-1.926-7.119-3.994-10.554-6.197
			c-3.421-2.195-6.756-4.523-9.994-6.98c-3.255-2.471-6.413-5.066-9.459-7.79c-1.515-1.354-3.003-2.738-4.459-4.155
			c-0.86-0.837-1.708-1.688-2.539-2.554c-0.127-0.482-0.266-0.961-0.44-1.427c-0.7-1.879-1.952-3.288-3.396-4.632
			c-0.073-0.068-0.155-0.108-0.241-0.129c-0.247-0.216-0.501-0.423-0.763-0.612c-1.666-1.204-3.556-2.052-5.281-3.164
			c-3.44-2.217-6.483-5.048-9.278-8.022c-2.741-2.918-5.256-6.036-7.748-9.165c-2.489-3.125-4.959-6.269-7.605-9.264
			c-1.437-1.626-2.938-3.193-4.468-4.731c-1.567-1.576-3.216-3.079-4.722-4.714c-0.232-0.252,0.112-0.576,0.368-0.368
			c0.428,0.345,0.838,0.706,1.247,1.072c3.273,2.922,6.398,6.02,9.27,9.339c2.659,3.072,5.15,6.281,7.691,9.45
			c2.52,3.143,5.098,6.25,7.934,9.117c2.953,2.985,6.164,5.685,9.841,7.735c1.723,0.961,3.533,1.918,4.88,3.394
			c-0.314-2.148-0.642-4.294-0.991-6.438c-0.392-2.41-0.728-4.853-1.297-7.229c-0.563-2.351-1.63-4.478-2.72-6.621
			c-0.559-1.1-1.119-2.2-1.678-3.3c-0.518-1.018-1.005-2.063-1.611-3.033c-0.562-0.901-1.265-1.671-2.145-2.27
			c-0.845-0.575-1.775-1.011-2.71-1.418c-2.011-0.876-3.99-1.78-5.914-2.838c-3.915-2.155-7.609-4.677-11.412-7.018
			c-1.899-1.169-3.827-2.295-5.817-3.304c-1.288-0.653-3.005-1.221-3.943-2.406c-0.136,0.136-0.457,0.053-0.435-0.178
			c0.015-0.161,0.021-0.321,0.03-0.482c-0.048-0.107-0.091-0.217-0.128-0.333c-0.053-0.168,0.041-0.307,0.173-0.376
			c0.012-0.244,0.023-0.488,0.048-0.732c0.062-0.606,0.123-1.212,0.174-1.819c0.186-2.226,0.359-4.447,0.375-6.682
			c0.008-1.119-0.025-2.239-0.113-3.355c-0.043-0.548-0.099-1.096-0.172-1.641c-0.07-0.526-0.237-1.09-0.121-1.617
			c0.067-0.306,0.48-0.317,0.633-0.083c0.337,0.516,0.341,1.268,0.416,1.863c0.08,0.637,0.14,1.276,0.183,1.917
			c0.022,0.338,0.031,0.675,0.043,1.013c0.159-0.207,0.317-0.414,0.475-0.622c2.721-3.576,4.757-7.614,5.861-11.979
			c0.585-2.312,0.868-4.668,0.988-7.047c0.127-2.513,0.107-5.03,0.254-7.542c0.145-2.492,0.456-4.987,1.194-7.378
			c0.592-1.92,1.421-3.76,2.371-5.529c3.514,1.82,7.202,3.275,11.109,4.179c3.462,0.801,6.996,1.053,10.471,0.189
			c3.092-0.769,6.01-2.218,8.749-3.819c4.778-2.793,9.181-6.362,12.682-10.663c0.658-0.809,1.283-1.648,1.875-2.51
			c3.302,1.225,6.612,2.45,9.762,4.031c1.754,0.88,3.463,1.872,5.042,3.04c0.791,0.585,1.555,1.207,2.279,1.874
			c0.728,0.67,1.517,1.453,1.746,2.449c0.015,0.064,0.012,0.121-0.001,0.174c0.164,0.447,0.315,0.899,0.475,1.347
			c0.279,0.783,0.558,1.565,0.836,2.347l0.723,2.028c0.214,0.599,0.411,1.21,0.722,1.767c0.556,0.997,1.503,1.576,2.583,1.875
			c1.091,0.301,2.335,0.414,3.457,0.252c1.032-0.149,2.283-0.761,2.438-1.923c0.059-0.438,0.575-0.626,0.844-0.228
			c0.543,0.803,1.551,1.111,2.481,1.091c1.043-0.023,2.008-0.491,2.877-1.033c0.943-0.589,1.847-1.26,2.737-1.926
			c1.648-1.232,3.175-2.866,3.118-5.024c-0.109-0.059-0.191-0.153-0.21-0.296c-0.025-0.186,0.095-0.425,0.299-0.458
			c0.446-0.073,0.892-0.111,1.328-0.238c0.394-0.115,0.766-0.278,1.122-0.482c0.772-0.441,1.433-1.046,2.007-1.721
			c1.04-1.223,1.816-2.718,2.245-4.263C449.023,232.688,449.132,230.964,448.308,229.578z M317.445,179.318
			c-2.889-3.194-6.329-5.773-9.811-8.278c-1.995-1.435-3.991-2.868-5.993-4.295c0.107-0.067,0.215-0.133,0.324-0.197
			c1.433,0.686,2.866,1.371,4.299,2.057c3.911,1.871,7.837,3.712,11.757,5.567c3.386,1.603,6.81,3.225,10.096,5.073
			c-1.808,0.448-3.543,1.098-5.118,2.174c-0.836,0.571-1.577,1.262-2.29,1.981C319.698,181.98,318.615,180.612,317.445,179.318z
			 M363.268,229.061c2.785-4.007,5.732-7.917,9.074-11.479c-0.147-0.2-0.284-0.408-0.408-0.628
			c-0.525-0.927-0.824-1.965-1.018-3.007c-0.212-1.143-0.339-2.306-0.411-3.466c-0.148-2.392-0.007-4.793,0.389-7.156
			c0.041-0.244,0.342-0.378,0.56-0.318c0.254,0.07,0.358,0.318,0.318,0.56c-0.097,0.577-0.178,1.155-0.24,1.737
			c-0.252,2.359-0.232,4.746,0.062,7.1c0.254,2.037,0.718,4.073,2.27,5.526c1.427,1.336,3.324,2.069,5.088,2.839
			c2.243,0.98,4.487,1.959,6.73,2.938c1.466,0.64,2.932,1.281,4.399,1.916c-0.373,0.419-0.751,0.834-1.137,1.241
			c-2.826,2.984-6.043,5.589-9.733,7.429c-3.702,1.845-7.82,2.846-11.965,2.538c-2.732-0.202-5.428-0.885-8.07-1.722
			C360.527,233.084,361.879,231.059,363.268,229.061z M385.902,240.226c-2.51,1.6-5.174,3.08-7.986,4.078
			c-3.135,1.112-6.347,1.378-9.631,0.845c-4.447-0.721-8.708-2.315-12.722-4.361c0.888-1.53,1.847-3.017,2.824-4.492
			c0.004,0.001,0.008,0.003,0.012,0.004c2.269,0.74,4.571,1.415,6.934,1.776c4.363,0.667,8.733,0.08,12.805-1.612
			c3.977-1.652,7.514-4.156,10.603-7.141c1.003-0.969,1.953-1.989,2.867-3.04c2.117,0.904,4.246,1.779,6.402,2.592
			C394.84,233.406,390.586,237.24,385.902,240.226z"/>
		<path style="fill:#020B2A;" d="M153.242,191.14C153.376,191.186,153.313,191.154,153.242,191.14L153.242,191.14z"/>
	</g>
</g>
</svg>
